<?xml version="1.0" encoding="utf-8"?>
<!-- Generator: Adobe Illustrator 26.0.3, SVG Export Plug-In . SVG Version: 6.00 Build 0)  -->
<svg version="1.0" id="Layer_1" xmlns="http://www.w3.org/2000/svg" xmlns:xlink="http://www.w3.org/1999/xlink" x="0px" y="0px"
	 viewBox="0 0 686 520.3" style="enable-background:new 0 0 686 520.3;" xml:space="preserve">
<style type="text/css">
	.st0{fill:#F72717;}
</style>
<path class="st0" d="M283.7,240.4c-8.7,0-14.2,5.7-16,13.2h31C297.7,245.3,291.9,240.4,283.7,240.4z"/>
<path class="st0" d="M200.8,243.7c-11.1,0-18.1,7.6-18.1,18.3s7.1,18.5,18.1,18.5s18.3-7.5,18.3-18.5
	C219.2,251.1,211.8,243.7,200.8,243.7z"/>
<path class="st0" d="M424.6,226.2c-16.6,0-29.6,6.6-31.7,23.9h0C387.6,171.8,325.9,110,246.4,110c-61,0-116,36.9-139.1,93.5h53.3
	l-2.8,17.9H116v19h37.9l-2.9,17.3h-35v11.1c0,6.7,2.9,9.9,8.4,9.9h35.7l-2.9,18h-39.6c-1.8,0-3.7-0.2-5.5-0.5l0,0
	c-4.3-0.6-8.3-2.9-11.1-6.3c-1.3-1.6-2.2-3.5-2.7-5.6c-0.2-0.9-0.2-0.9-0.4-1.6c0.3,2.2,0.8,5.2,1,6.3c1.2,6.3,2.7,11.6,2.9,11.9
	c22.7,79.9,105.8,126.3,185.8,103.7c51.7-14.7,91.7-55.8,104.8-108h-20.2V260c0-9.9-3.8-16.2-13.6-16.2s-13.6,6.3-13.6,16.2v36.7
	h-20.2v-41.7c0-19.9,14.5-28.8,33.8-28.8s33.8,8.8,33.8,28.8v41.7h20.3V260c0-9.9,2.6-16.2,12.3-16.2c2.8,0,5.5,0.6,8,1.6l3.8-17.7
	C434.7,227.3,429,226.2,424.6,226.2z M239.5,258c0,25.2-14.9,40-39.6,40c-22.8,0-38.3-15.3-38.3-35.9c0-21.5,14.6-35.9,36.6-35.9
	c10,0,17.4,4,21.1,7.9v-30.6h20.2L239.5,258L239.5,258z M290.4,282.8c5.8-0.1,11.4-1.5,16.6-4.1l-1.7,16c-5.8,2.4-12.8,3.3-19.8,3.3
	c-23.2,0-39.6-13.6-39.6-36.7c0-20.1,14.6-35.1,37-35.1c25.3,0,38,16.1,37.5,40.9h-52.2C270.2,278.4,281.1,282.8,290.4,282.8
	L290.4,282.8z"/>
<path class="st0" d="M470.4,226.2c-22.4,0-37.1,15-37.1,35.1c0,23.1,16.4,36.7,39.6,36.7c7,0,14-0.9,19.8-3.3l1.7-16
	c-5.2,2.6-10.8,4-16.6,4.1c-9.4,0-20.2-4.3-22.2-15.7h52.3C508.4,242.3,495.8,226.2,470.4,226.2z M455.1,253.6
	c1.7-7.5,7.3-13.2,16-13.2c8.2,0,14,4.9,15,13.2H455.1z"/>
<path class="st0" d="M567.8,203.5v30.6c-3.7-4-11.1-7.9-21.1-7.9c-21.9,0-36.6,14.4-36.6,35.9c0,20.6,15.4,35.9,38.3,35.9
	c24.7,0,39.6-14.8,39.6-40v-54.5H567.8z M549.3,280.5c-10.9,0-18.1-7.9-18.1-18.5c0-10.6,7-18.3,18.1-18.3
	c11.1,0,18.3,7.4,18.3,18.3C567.7,273,560.3,280.5,549.3,280.5L549.3,280.5z"/>
</svg>
