<?xml version="1.0" encoding="utf-8"?>
<!-- Generator: Adobe Illustrator 26.0.3, SVG Export Plug-In . SVG Version: 6.00 Build 0)  -->
<svg version="1.0" id="katman_1" xmlns="http://www.w3.org/2000/svg" xmlns:xlink="http://www.w3.org/1999/xlink" x="0px" y="0px"
	 viewBox="0 0 600 450" style="enable-background:new 0 0 600 450;" xml:space="preserve">
<path d="M254,210c-6.8,0-11.1,4.4-12.4,10.3h24.2C264.9,213.8,260.4,210,254,210 M189.4,212.6c-8.6,0-14.1,6-14.1,14.3
	c0,8.2,5.6,14.4,14.1,14.4s14.3-5.9,14.3-14.4C203.7,218.3,198,212.6,189.4,212.6"/>
<path d="M363.8,198.9c-13,0-23.1,5.2-24.7,18.6c-0.1,0,0.1,0,0,0c-4.1-60.9-52.2-109.1-114.2-109.1c-49,0-90.9,30.1-108.3,72.8h41.5
	l-2.2,14h-32.6V210h29.5l-2.3,13.5h-27.2v8.6c0,5.2,2.3,7.7,6.6,7.7h27.9l-2.3,14h-30.8c-1.5,0-2.9-0.1-4.3-0.4c0,0-5.3-0.6-8.6-4.9
	c-0.1-0.1-1.4-1.7-2.1-4.3c-0.2-0.7-0.2-0.7-0.3-1.3c0.2,1.7,0.6,4.1,0.8,4.9c0.9,4.9,2.1,9,2.2,9.3c13.8,49.3,58.9,85.3,112.5,85.3
	c54.8,0,101.1-37.7,113.8-88.6H323v-28.6c0-7.7-3-12.6-10.6-12.6s-10.6,4.9-10.6,12.6v28.6h-15.7v-32.5c0-15.5,11.3-22.4,26.3-22.4
	s26.3,6.9,26.3,22.4v32.5h15.8v-28.6c0-7.7,2.1-12.6,9.6-12.6c2.4,0,5.2,0.7,6.3,1.2l3-13.8C371.6,199.8,367.2,198.9,363.8,198.9
	 M219.6,223.7c0,19.6-11.6,31.2-30.8,31.2c-17.8,0-29.8-11.9-29.8-28c0-16.8,11.4-28,28.5-28c7.8,0,13.6,3.1,16.5,6.2v-23.9h15.7
	L219.6,223.7L219.6,223.7z M259.2,243c4.6,0,8.9-1.3,12.9-3.2l-1.3,12.4c-4.5,1.9-10,2.6-15.4,2.6c-18.1,0-30.8-10.6-30.8-28.6
	c0-15.6,11.4-27.3,28.9-27.3c19.7,0,29.6,12.5,29.2,31.9H242C243.5,239.6,251.9,243,259.2,243 M399.5,198.9
	c-17.5,0-28.9,11.7-28.9,27.3c0,18,12.8,28.6,30.8,28.6c5.4,0,10.9-0.7,15.4-2.6l1.3-12.4c-4,1.8-8.3,3.2-12.9,3.2
	c-7.3,0-15.7-3.4-17.3-12.2h40.7C429.1,211.4,419.2,198.9,399.5,198.9 M387.5,220.3c1.3-5.9,5.7-10.3,12.4-10.3
	c6.4,0,10.9,3.8,11.7,10.3H387.5z M475.3,181.2v23.9c-2.9-3.1-8.6-6.2-16.5-6.2c-17.1,0-28.5,11.2-28.5,28c0,16,12,28,29.8,28
	c19.2,0,30.8-11.5,30.8-31.2v-42.5H475.3z M461,241.3c-8.5,0-14.1-6.2-14.1-14.4c0-8.3,5.4-14.3,14.1-14.3c8.5,0,14.3,5.8,14.3,14.3
	C475.2,235.4,469.5,241.3,461,241.3"/>
</svg>
